<svg width="219" height="57" viewBox="0 0 219 57" fill="none" xmlns="http://www.w3.org/2000/svg">
<path d="M70.6009 50.9C62.0009 50.9 53.4009 50.8999 44.8009 50.7999C41.1009 43.5999 37.5009 36.3 33.6009 29.1C32.5009 27 32.7009 25.4 33.7009 23.4C37.4009 15.9999 41.0009 8.49995 44.6009 0.99995C46.3009 0.49995 46.5009 1.99995 47.0009 2.99995C54.8009 18.4999 62.6009 34 70.4009 49.4C70.6009 49.9 70.5009 50.4 70.6009 50.9Z" fill="white"/>
<path d="M33.1016 49.5999C31.9016 51.4999 30.0016 50.9999 28.4016 50.9999C19.0016 50.9999 9.60156 50.9999 0.101562 50.9999C5.60156 39.8999 11.0016 28.7999 17.0016 16.7999C22.6016 28.1999 27.9016 38.8999 33.1016 49.5999Z" fill="white"/>
<path d="M81.3893 45.1112V15.5012H86.8073V27.8492H101.969V15.5012H107.387V45.1112H101.969V32.3432H86.8073V45.1112H81.3893ZM123.071 45.5312C120.887 45.5312 118.997 45.0832 117.401 44.1872C115.805 43.2912 114.559 42.0172 113.663 40.3652C112.795 38.7132 112.361 36.7532 112.361 34.4852C112.361 32.2172 112.795 30.2712 113.663 28.6472C114.559 26.9952 115.805 25.7212 117.401 24.8252C118.997 23.9292 120.887 23.4812 123.071 23.4812C125.255 23.4812 127.145 23.9292 128.741 24.8252C130.365 25.7212 131.611 26.9952 132.479 28.6472C133.375 30.2712 133.823 32.2172 133.823 34.4852C133.823 36.7532 133.375 38.7132 132.479 40.3652C131.611 42.0172 130.365 43.2912 128.741 44.1872C127.145 45.0832 125.255 45.5312 123.071 45.5312ZM123.071 41.4992C124.723 41.4992 126.039 40.9252 127.019 39.7772C127.999 38.6012 128.489 36.8372 128.489 34.4852C128.489 32.1332 127.999 30.3832 127.019 29.2352C126.039 28.0872 124.723 27.5132 123.071 27.5132C121.419 27.5132 120.103 28.0872 119.123 29.2352C118.143 30.3832 117.653 32.1332 117.653 34.4852C117.653 36.8372 118.143 38.6012 119.123 39.7772C120.103 40.9252 121.419 41.4992 123.071 41.4992ZM138.35 45.1112V29.1932C138.35 28.3252 138.322 27.4432 138.266 26.5472C138.21 25.6512 138.126 24.7692 138.014 23.9012H143.096L143.516 28.1012H143.012C143.6 26.6452 144.496 25.5112 145.7 24.6992C146.932 23.8872 148.388 23.4812 150.068 23.4812C151.748 23.4812 153.134 23.8872 154.226 24.6992C155.346 25.4832 156.13 26.7152 156.578 28.3952H155.906C156.494 26.8832 157.46 25.6932 158.804 24.8252C160.148 23.9292 161.688 23.4812 163.424 23.4812C165.804 23.4812 167.582 24.1812 168.758 25.5812C169.934 26.9812 170.522 29.1652 170.522 32.1332V45.1112H165.272V32.3432C165.272 30.6632 164.992 29.4592 164.432 28.7312C163.872 27.9752 162.976 27.5972 161.744 27.5972C160.288 27.5972 159.14 28.1152 158.3 29.1512C157.46 30.1592 157.04 31.5312 157.04 33.2672V45.1112H151.79V32.3432C151.79 30.6632 151.51 29.4592 150.95 28.7312C150.39 27.9752 149.494 27.5972 148.262 27.5972C146.806 27.5972 145.658 28.1152 144.818 29.1512C144.006 30.1592 143.6 31.5312 143.6 33.2672V45.1112H138.35ZM186.374 45.5312C182.818 45.5312 180.032 44.5512 178.016 42.5912C176 40.6312 174.992 37.9432 174.992 34.5272C174.992 32.3152 175.426 30.3832 176.294 28.7312C177.162 27.0792 178.366 25.7912 179.906 24.8672C181.474 23.9432 183.294 23.4812 185.366 23.4812C187.41 23.4812 189.118 23.9152 190.49 24.7832C191.862 25.6512 192.898 26.8692 193.598 28.4372C194.326 30.0052 194.69 31.8392 194.69 33.9392V35.3252H179.234V32.5532H190.952L190.238 33.1412C190.238 31.1812 189.818 29.6832 188.978 28.6472C188.166 27.6112 186.976 27.0932 185.408 27.0932C183.672 27.0932 182.328 27.7092 181.376 28.9412C180.452 30.1732 179.99 31.8952 179.99 34.1072V34.6532C179.99 36.9492 180.55 38.6712 181.67 39.8192C182.818 40.9392 184.428 41.4992 186.5 41.4992C187.704 41.4992 188.824 41.3452 189.86 41.0372C190.924 40.7012 191.932 40.1692 192.884 39.4412L194.438 42.9692C193.43 43.7812 192.226 44.4112 190.826 44.8592C189.426 45.3072 187.942 45.5312 186.374 45.5312ZM198.008 45.1112V41.6672L211.28 26.5892V27.8492H198.008V23.9012H216.026V27.3452L202.628 42.5492L202.586 41.1632H216.488V45.1112H198.008Z" fill="white"/>
</svg>
